<svg id="Layer_1" enable-background="new 0 0 511.426 511.426" height="512" viewBox="0 0 511.426 511.426" width="512" xmlns="http://www.w3.org/2000/svg"><g><g><path d="m24.636 491.715c-13.606 0-24.636-11.035-24.636-24.647v-277.312c0-13.612 11.03-24.647 24.636-24.647h462.154c13.606 0 24.636 11.035 24.636 24.647v277.312c0 13.612-11.03 24.647-24.636 24.647z" fill="#fdbf00"/><path d="m486.79 165.109h-231.514v326.605h231.514c13.606 0 24.636-11.035 24.636-24.647v-277.311c0-13.612-11.03-24.647-24.636-24.647z" fill="#ff9100"/><g><g><g><path d="m223.137 320.157-215.628 164.618c4.433 4.293 10.47 6.939 17.127 6.939h462.154c6.657 0 12.693-2.646 17.126-6.939l-215.628-164.618c-19.237-14.686-45.915-14.686-65.151 0z" fill="#ff9100"/></g></g></g><path d="m255.276 309.151v182.563h231.514c6.657 0 12.693-2.646 17.126-6.939l-215.628-164.618c-9.74-7.436-21.388-11.1-33.012-11.006z" fill="#ff641a"/><g><g><g><path d="m288.289 336.667 215.628-164.618c-4.433-4.293-10.47-6.939-17.127-6.939h-462.155c-6.657 0-12.693 2.646-17.126 6.939l215.629 164.619c19.236 14.685 45.914 14.685 65.151-.001z" fill="#ffda2d"/></g></g></g><path d="m255.276 165.109v182.563c11.624.094 23.273-3.569 33.013-11.006l215.628-164.618c-4.433-4.293-10.47-6.94-17.127-6.94h-231.514z" fill="#fdbf00"/></g><g><path d="m104.483 191.112h156.045c.949 0 1.718.756 1.718 1.688v58.657c0 5.845 6.906 9.067 11.514 5.372l137.643-110.379c3.432-2.752 3.465-7.897.067-10.69l-139.156-114.42c-4.592-3.776-11.581-.567-11.581 5.318v54.627c0 .594-.49 1.075-1.094 1.075h-154.735c-3.884 0-7.038 3.086-7.054 6.903l-.422 94.885c-.017 3.841 3.146 6.964 7.055 6.964z" fill="#00aeee"/><path d="m97.656 141.767-.188 42.381c-.017 3.841 3.146 6.964 7.054 6.964h156.045c.949 0 1.718.756 1.718 1.688v58.657c0 5.845 6.906 9.067 11.514 5.372l137.643-110.379c1.529-1.226 2.379-2.927 2.556-4.683z" fill="#0089ff"/></g></g></svg>